<?xml version="1.0" encoding="utf-8"?><svg enable-background="new 0 0 584 193" height="193" viewBox="0 0 584 193" width="584" xmlns="http://www.w3.org/2000/svg"><path d="m516.9 1.2c3.9.3 6.8 3.9 6.9 7.7 1.9 24-31.8 65.5-38.4 76.6-2.9 7.9-5.2 16-7.1 24.2-.6 2.8-.8 5.7-.5 8.5 2.9-.4 5-2.4 7-4.3 19.5-18.4 26.7-33.1 37.6-46.4 3.8-4.6 4.7-10.7 7-16 4.6-10.9 8.6-22.5 16.8-31.2 2.6-3.2 7.8-4.2 11-1.3 2.8 2.6 2.8 6.6 2.4 10.1-.8 6.3-4.4 11.7-7.5 17.1-20.1 34.6-20.9 26.9-23.8 38.2-2.5 9.6-5.3 19.4-5.5 29.4 10.2-3.9 18.6-11.2 27.2-17.7 3-1.6 2.1-5.3 3.3-8 3-8.6 10.6-14.1 17.4-19.4 2.5-2.2 6.2-4.9 9.5-2.4 2.9 2.2 5.5 8 1.4 10.4-4.9 3.7-9.9 7.4-14.2 11.8-1.3 1.5-3 4.1-1.5 6 3.7 2.5 8.4 3.2 11.5 6.5 3.3 2.9 4.5 7.7 3.2 11.9-1.6 5.1-5.1 9.3-8.3 13.5-5 6.5-12 10.9-18.8 15.2-4.4 2.4-8.7 5.5-13.8 6.1 0-1.6.4-3.2 1.4-4.5 9-11.1 19.4-21 27.1-33.2-5.8-2.9-12.5-5.6-15.5-11.7-7.5 6.8-14.6 14-23.2 19.4-7.9 4.9-12.6 2.1-13.1-3.4s.4-10.9.7-16.3c-5.3 3.4-25.3 36.9-42.9 33.2-3.3-.5-6.2-2.7-7.5-5.7-2.2-4.2-1.2-9-1.5-13.5-6.4 6.1-12.3 13-20.5 16.8-4.6 2.2-10.7.8-13.6-3.4-1.1-2.1-2.6.5-3.6 1.4-6.1 6.7-14.8 13.1-24.4 11.5-4.1-.4-6.3-4-8.9-6.6-4.2 3.5-9.8 7.7-15.5 5.1-10.7-6.7-1.8-37.7 2.3-60.5-2.6.6-3.3 3.4-4.8 5.3-10.9 16.9-28 46-37.6 50.5-4.7 2.2-11.2-.4-12.1-5.7-1.9-15.9 9.4-68.3 11.9-96.6-5.7 4.8-15.7 27.2-49.3 93.7-8.7 17.3-42.6 77.4-59.4 67.6-1.3-1.8-.5-4.1.1-6 5-13.2 16.7-17.4 33.7-46.1.7-1.3 1.3-2.6 1.8-3.9-3.9.6-7.8 0-11.7 0v-.1c4.2-.4 8.6.7 12.7-.7.9-1.5 25.9-50 37.6-75 7.7-14.5 14.9-29.3 24.1-42.9 3.9-5.7 8.2-12.2 15.3-14.2 5.9-.6 10.7 4.8 11.2 10.4 1.5 17.7-2.7 31.5-10.2 87.2 2.6 0 3.3-2.9 4.6-4.6 10.9-16.2 21.7-32.6 35.2-46.8 4.9-5.1 15.1-3.9 14 8.3-1.3 15.5-15.1 44.2-16.8 67.9.1 2.4-.6 5.3 1.1 7.3 4.1.5 7.5-2.6 10.9-4.4-.3-10.7 5.2-20.8 12.9-27.9 8-7.3 16.6-14.6 27-17.9 4.7-1.1 9.8-1.9 14.4-.3.2.9.3 1.9.4 2.8-2.9 2.1-5.7 4.4-8.5 6.5 2.8 1.5 6.2 3.4 6.4 7 .4 5.9-2.7 11.4-3 17.2 6.8-3.9 29.4-28.5 32.5-38 4.3-13.1 8.7-26.2 14.2-38.9 4.6-11.5 15.3-38.5 27.3-36.8zm-94.2 100.5c-7.4 5.7-15.3 12.6-16.9 22.4.6 2.5 2.9.7 4.2 0 10.2-6.7 18.2-16.7 22.1-28.3-3.6 1-6.5 3.6-9.4 5.9z" fill="#e15810"/><g fill="#016136"><path d="m26.9 52.2c7.3-.1 14.5-.1 21.8 0 8.5 22.5 29.2 74.5 31 81.1-5 .2-10 .1-14.9.2-2.8-6.2-4.9-12.7-7.4-19-9.8-.2-19.6 0-29.5-.1-1.4.1-2.9-.2-4.2.4-3 6-4.5 12.7-7.6 18.7-5.1 0-10.2.1-15.3-.2 3.1-9 20-48.3 26.2-64.3 1.2-3.2 3.4-6.4 3.1-10-.8-2.4-2-4.6-3.2-6.8zm.3 51.4h26.7c-4.3-11.5-8.6-22.9-13.1-34.3-5.3 11.1-8.7 23.1-13.6 34.3z"/><path d="m194.7 51.7c4.2-.2 8.5-.1 12.7 0 .1 27.5.2 54.9 0 82.3-4.2.2-8.4.2-12.6 0-.2-27.4-.3-54.8-.1-82.3z"/><path d="m147.5 76.5c6.8-2.2 14.2-2.5 21.3-1.9 6.9 1.2 13.4 7 13.4 14.4-.1 41.3-.6 39.2 2.6 45.2-4.2.1-8.3.2-12.4-.1-.8-1.4-.9-3.4-2.3-4.3-4.6 2.6-9.5 5.4-15 5.1-7.8.4-16.2-4.3-18.3-12.2-.9-4.2-1.1-8.7.2-12.8 5.1-12 19.4-11.8 32.2-12.1.1-2.9.5-5.8 0-8.7-3.6-9.1-18.3-4.8-27.6-2.1 1.7-3.6 3.2-7.5 5.9-10.5zm4.5 31.5c-5.7 4.6-4 15.6 3.4 17.4 4.5.8 9.8.4 13.4-2.7.5-5.9.2-11.9.1-17.9-5.7-.3-12.3-.9-16.9 3.2z"/><path d="m228.5 76.5c6-2 12.3-2.1 18.6-2.1 7.9 0 16.1 6.3 16.1 14.6.1 12 .1 24 0 36.1 0 3.1.8 6.2 2.8 8.6-4.1 1.4-8.5.3-12.7.7-.5-1.6-1-3.1-1.5-4.7-3.8 1.5-7.1 4-11.2 4.8-15 2.8-26.8-7.6-22.8-23.7 4.1-13.3 21.9-12.7 32.4-12.9.1-2.9.5-5.8 0-8.7-1.3-3.7-5.5-5.4-9.2-5.5-6.3-.2-12.4 1.6-18.3 3.4 1.6-3.8 3.3-7.5 5.8-10.6zm9.1 29c-12.5 4.5-8.4 19.3-.4 20.2 4.3.5 9.4.3 12.7-2.8.8-6 .4-12 .4-18-4.3-.3-8.7-.9-12.7.6z"/><path d="m76.2 76.2c5.2.1 10.3.1 15.5.1 4.8 13.7 9.7 27.3 14.7 40.9 2-2.9 10.1-30 13.9-40.8 4.8.1 9.7.1 14.6 0-7.5 18.5-14.3 37.3-21.5 55.8-2.5 8.7-7.3 17.3-15.6 21.6-5.9 3-12.7 2.9-19.1 2.5 1.3-3.3 1.6-7.2 3.7-10.1 2.8-.6 5.8-.2 8.5-1.4 4.4-1.9 7.8-6.1 8.4-10.8-.4-1.8-1.1-3.6-1.8-5.3-7.3-17.5-14-35.1-21.3-52.5z"/></g></svg>